<?xml version="1.0" encoding="utf-8"?>
<!-- Generator: Adobe Illustrator 22.0.1, SVG Export Plug-In . SVG Version: 6.00 Build 0)  -->
<svg version="1.1" id="Layer_1" xmlns="http://www.w3.org/2000/svg" xmlns:xlink="http://www.w3.org/1999/xlink" x="0px" y="0px"
	 viewBox="0 0 504 360" style="enable-background:new 0 0 504 360;" xml:space="preserve">
<style type="text/css">
	.st0{fill:#F05659;stroke:#F05659;stroke-miterlimit:10;}
	.st1{fill:#0AB4BB;stroke:#0AB4BB;stroke-miterlimit:10;}
	.st2{fill:#0AB4BB;stroke:#00B3BA;stroke-miterlimit:10;}
</style>
<path class="st0" d="M106,201.3c0,0.8-0.3,1.3-0.8,1.6c-2.6,1.9-5.1,3.6-7.6,5.2c-2.4,1.6-5.2,2.9-8.3,4c-3.1,1.1-6.7,1.9-10.8,2.4
	c-4.1,0.5-9.1,0.8-14.8,0.8c-16.5,0-29.3-4.6-38.2-13.8c-9-9.2-13.4-22.3-13.4-39.2c0-10.8,2.2-20.3,6.5-28.4
	c4.4-8.1,10.6-14.3,18.7-18.7c8.1-4.4,17.5-6.5,28.3-6.5c9.2,0,17.9,2.2,26.1,6.7c2.4,1.3,4.2,1.9,5.6,1.9c1.3,0,2.3-0.9,3-2.8
	c0.1-0.9,0.9-1.3,2.3-1.3c0.6,0,1.2,0.1,1.6,0.3c0.4,0.2,0.6,0.5,0.6,0.9v0.2c-0.7,3-1,6.2-1,9.8c0,3.8,0.4,9.7,1.2,17.7
	c0,0.6-0.3,1.1-0.9,1.6c-0.6,0.4-1.3,0.7-2,0.7c-1.4,0-2.2-0.5-2.3-1.6c-1.4-8.9-5.2-15.6-11.4-20.3c-6.1-4.7-14-7.1-23.5-7.1
	c-6.8,0-12.7,1.9-17.7,5.7c-5,3.8-8.8,9.1-11.5,16c-2.7,6.9-4,14.5-4,22.8c0,15.3,3,27.3,9,36s14.3,13,24.8,13
	c9.6,0,16.4-1.5,20.3-4.6c4-3.1,5.9-7.9,5.9-14.5c0-3.8-0.3-6.5-0.9-8.2c-0.6-1.7-1.7-3-3.3-3.8c-1.6-0.8-5.2-1.5-10.7-2
	c-1.3,0-1.9-0.8-1.9-2.4c0-0.5,0.1-1,0.4-1.5s0.7-0.7,1.2-0.7c3.6,0,7.2,0.1,11.1,0.4c3.8,0.2,7.2,0.4,10.1,0.4l8-0.4l9.8-0.4
	c1,0,1.5,0.7,1.5,2.2c0,1.4-0.6,2.2-1.9,2.4c-2.4,0.2-4.3,0.6-5.5,1.2c-1.2,0.6-2.1,1.5-2.6,2.6c-0.5,1.1-0.8,3.7-0.8,7.7V201.3z"/>
<path class="st0" d="M259.7,192.6c0,6.1,1.2,10.3,3.7,12.6c2.4,2.3,7,3.7,13.8,4.2c1.3,0,2,0.9,2,2.6c0,1.7-0.7,2.5-2.2,2.5
	c-5.4,0-10.1-0.2-14-0.6c-3.9-0.4-7.7-0.6-11.4-0.6c-3.9,0-7.7,0.2-11.4,0.6c-3.7,0.4-7.4,0.6-10.9,0.6c-0.6,0-1.1-0.3-1.4-0.9
	s-0.4-1.2-0.4-1.8c0-1.4,0.6-2.3,1.9-2.4c4.4-0.4,7.4-1.1,9.1-2.1c1.7-0.9,3-2.4,3.7-4.3c0.7-1.9,1.1-4.9,1.1-9v-56.7
	c0-5.1-0.3-8.9-0.8-11.4c-0.5-2.4-1.4-4.4-2.5-5.9c-1.1-1.5-2.7-2.5-4.6-2.9c-3.1-0.7-5.4-1.1-7-1.3c-0.6,0-1.1-0.2-1.4-0.7
	c-0.3-0.5-0.5-1.1-0.5-1.7c0-0.6,0.2-1.1,0.5-1.6c0.3-0.5,0.8-0.7,1.4-0.7c3.4,0,6.5,0.1,9.2,0.4s5.9,0.4,9.6,0.4
	c6.1-0.1,11.1-0.3,15.1-0.5c4-0.2,7.8-0.4,11.5-0.4c10.5,0,18.5,2.3,24,6.9c5.5,4.6,8.2,11,8.2,19.2c0,9.6-3.5,16.9-10.5,21.9
	c-7,5-17.9,7.8-32.7,8.3c-1,0-1.8,0.2-2.2,0.5c-0.4,0.3-0.7,1.2-0.7,2.6V192.6z M259.7,159.6c0,0.8,0.2,1.3,0.7,1.5s1.3,0.3,2.5,0.3
	c6.7,0,11.9-0.7,15.6-2.1c3.7-1.4,6.3-3.7,8-6.8c1.7-3.1,2.5-7.7,2.5-13.7c0-8-1.5-13.6-4.4-16.9c-2.9-3.3-8-4.9-15.2-4.9
	c-4,0-6.6,0.5-7.8,1.5c-1.3,1-1.9,3.1-1.9,6.2V159.6z"/>
<path class="st0" d="M333.3,131.6c0,3.8,1.1,7,3.3,9.6c2.2,2.7,5.5,5,10,7c10.9,4.9,18.4,8.6,22.4,11.2c4,2.6,7.2,5.3,9.6,8.2
	c2.4,2.9,4.1,5.9,5.2,8.9c1.1,3.1,1.6,6.6,1.6,10.7c0,6-1.6,11.2-4.7,15.4c-3.1,4.3-7.5,7.5-13,9.8c-5.5,2.3-11.8,3.4-18.9,3.4
	c-2.9,0-6.1-0.4-9.6-1.3c-3.5-0.9-6.8-2.2-9.7-3.9c-0.5-0.2-1-0.4-1.5-0.6c-0.4-0.2-1-0.3-1.7-0.3c-1.9,0-3.4,1.4-4.5,4.1
	c-0.5,1-1.3,1.5-2.4,1.5c-0.6,0-1.1-0.2-1.6-0.5c-0.4-0.3-0.7-0.7-0.7-1.2c0.8-5.9,1.2-11,1.2-15.1c0-5.7-0.3-11.1-1-16.1v-0.3
	c0-0.5,0.2-0.9,0.7-1.3c0.5-0.4,1.1-0.6,1.8-0.6c1.4,0,2.3,0.5,2.4,1.6c1.3,8.6,4.6,15.3,9.7,20.2s11.2,7.3,18.1,7.3
	c5.9,0,10.8-1.6,14.8-4.7c4-3.1,5.9-7.4,5.9-12.7c0-3.7-0.8-6.9-2.4-9.6c-1.6-2.7-3.5-5.1-5.9-7.1c-2.3-2-4.9-3.7-7.8-5.2
	c-2.8-1.5-5.5-2.8-8.1-4c-3.4-1.5-6.7-3.1-10.1-4.7c-3.3-1.6-6.3-3.5-8.9-5.8c-2.6-2.3-4.8-5-6.4-8.2s-2.4-7.2-2.4-12
	c0-8.2,3.1-14.6,9.3-19.1c6.2-4.6,14.7-6.8,25.5-6.8c2.9,0,5.3,0.2,7.2,0.5c2,0.3,4.2,0.9,6.6,1.8c2.9,0.9,4.8,1.3,5.7,1.3
	c1.2,0,2.1-0.5,2.6-1.5c0.3-0.7,1.1-1,2.3-1c0.5,0,1,0.1,1.5,0.3c0.5,0.2,0.8,0.5,0.8,0.8v0.2c-0.8,2.8-1.3,6.6-1.3,11.2
	c0,2.7,0.2,5.1,0.5,7.2c0.3,2.1,0.6,4.7,0.8,7.6c0,0.3-0.3,0.7-0.8,0.9c-0.5,0.3-1.1,0.4-1.6,0.4c-1.2,0-2-0.4-2.2-1.3
	c-1.4-6.2-2.9-10.8-4.6-13.7s-4-5.1-6.9-6.4c-2.9-1.3-7-1.9-12.2-1.9c-5.6,0-10.2,1.4-13.7,4.3C335,123.1,333.3,126.9,333.3,131.6z"
	/>
<path class="st0" d="M451.4,193.9c0,4.3,0.3,7.3,1,9.3c0.7,1.9,2,3.3,3.8,4.2c1.8,0.9,5.1,1.5,9.9,2c0.6,0.1,1.1,0.4,1.4,1
	c0.4,0.5,0.6,1.1,0.6,1.7c0,0.6-0.2,1.2-0.6,1.7s-0.9,0.7-1.6,0.7c-4.1,0-7.9-0.2-11.6-0.7c-3.7-0.4-7.4-0.7-11-0.7
	c-3.9,0-7.8,0.2-11.9,0.7c-4.1,0.4-7.8,0.7-11.1,0.7c-1.2,0-1.9-0.8-1.9-2.4c0-1.6,0.6-2.5,1.9-2.7c4.8-0.4,8-1.1,9.8-2
	c1.8-0.9,3-2.2,3.7-4s1-5,1-9.6V174l-10.6-19.5c-10.6-19.8-17.5-31.5-20.7-35c-1.3-1.4-2.8-2.2-4.6-2.6c-1.8-0.3-4-0.7-6.6-1.1
	c-0.5-0.1-0.9-0.4-1.2-0.9c-0.3-0.5-0.5-1.1-0.5-1.7c0-0.6,0.2-1.1,0.5-1.6c0.3-0.5,0.7-0.7,1.2-0.7c4.1,0,7.9,0.1,11.4,0.4
	c3.5,0.3,7,0.4,10.5,0.4c3.7,0,7.4-0.1,11.2-0.4c3.8-0.3,7.4-0.4,11-0.4c1.3,0,1.9,0.8,1.9,2.4c0,0.6-0.2,1.2-0.5,1.7
	c-0.3,0.5-0.8,0.8-1.4,0.9c-3.9,0.4-6.6,1.1-8.2,2c-1.6,0.9-2.4,2.2-2.4,4c0,1.9,1,4.7,2.9,8.4l18.1,34.5c0.3,0.5,0.7,0.7,1.3,0.7
	c0.5,0,1-0.2,1.3-0.7c6.4-10.5,11.5-19.5,15.1-26.9c3.6-7.4,5.4-12.4,5.4-15c0-2.1-0.5-3.6-1.4-4.6c-1-1-2.5-1.6-4.5-1.9l-4.2-0.5
	c-1.1-0.2-1.6-1.1-1.6-2.6c0-0.6,0.1-1.1,0.4-1.6c0.3-0.5,0.7-0.7,1.2-0.7c3.8,0,7,0.1,9.8,0.4c2.8,0.3,5.6,0.4,8.5,0.4
	c2.3,0,4.7-0.1,7.2-0.4c2.5-0.3,5.2-0.4,8.2-0.4c1.1,0,1.6,0.8,1.6,2.4c0,0.6-0.1,1.2-0.4,1.8c-0.3,0.5-0.7,0.8-1.3,0.8
	c-2.2,0.2-4.3,0.9-6.3,2.1c-2,1.2-3.8,2.7-5.2,4.5c-1.4,1.8-4.1,6-8.1,12.6c-4,6.6-11.4,19.1-22.2,37.4V193.9z"/>
<circle class="st0" cx="172.7" cy="128.2" r="14.1"/>
<path class="st1" d="M191,117.8c0,0.7-0.6,1.3-1.3,1.3c-0.7,0-1.3-0.6-1.3-1.3c0-0.6,0.3-1,0.8-1.2v-0.2l-0.4-9.7l-4.3,2.4v5.1
	c0,0-12.4-6.9-25.2,0.9v-5.7l-9.3-3.1l21-8.7l21.1,7.3l-1.8,1v10.8C190.7,116.9,191,117.3,191,117.8z"/>
<path class="st2" d="M35.1,280.2v-46.9H41v46.9H35.1z"/>
<path class="st2" d="M94.1,280.2L72,239c0.1,5.5,0.2,12.2,0.2,17.7v23.5h-5.8v-46.9h9l22.1,41.2c-0.1-5.5-0.2-12.2-0.2-17.7v-23.5
	h5.7l0.1,46.9H94.1z"/>
<path class="st2" d="M166.2,248.2l0.1,0.7h-5.8l-0.1-0.7c-1.4-6.7-5.5-11.3-13.3-11.3c-9.6,0-15.5,8.4-15.5,19.7
	c0,11.6,5.8,19.9,15.1,19.9c7.8,0,12-4.6,13.3-11.3l0.1-0.7h5.8l-0.1,0.7c-0.9,8.5-7.2,15.9-19.6,15.9c-13.7,0-21.3-10.5-21.3-24.2
	c0-14.3,8.8-24.6,22.2-24.6C159,232.3,165.3,239,166.2,248.2z"/>
<path class="st2" d="M220.6,280.2h-31.2v-46.9h30.5v4.8h-24.7v16.3h22.6v4.8h-22.6v16.3h25.4V280.2z"/>
<path class="st2" d="M270.4,280.2L248.3,239c0.1,5.5,0.2,12.2,0.2,17.7v23.5h-5.8v-46.9h9l22.1,41.2c-0.1-5.5-0.2-12.2-0.2-17.7
	v-23.5h5.7l0.1,46.9H270.4z"/>
<path class="st2" d="M322.9,238v42.2H317V238h-16.7v-4.8h39.3v4.8H322.9z"/>
<path class="st2" d="M359.7,280.2v-46.9h5.8v46.9H359.7z"/>
<path class="st2" d="M402.6,280.2l-16.2-46.9h6.3l13.9,42.5l14.4-42.5h6.3l-16.9,46.9H402.6z"/>
<path class="st2" d="M477.8,280.2h-31.2v-46.9h30.5v4.8h-24.7v16.3h22.6v4.8h-22.6v16.3h25.4V280.2z"/>
<path class="st1" d="M197.5,110.2c0,0-8.2,0.6-3.6,7.7c0,0,3.3,2.5,1.1,7.7c-1.7,4.5-3.7,9.2-6,14.1c-5,10.6-10.5,19.6-15.8,27.3
	c-2-3.7-21.8-40.6-22.6-44.7c-0.2-1.3,0-2.2,0-2.2c0.6-2.1,2.6-2.4,3.2-4.2c0.4-1.3-0.1-2.7-0.7-3.5c-1.5-2.1-4.9-1.8-8-1.7
	c-11.2,0.4-17.6,0.6-23.6-0.7c-1.4-0.3-4.6-1.1-6.1,0.5c-0.7,0.8-0.8,1.9-0.8,2.7c0,0.3,0.1,0.8,0.4,1.2c1.1,1.6,4.2,1.1,4.9,1.1
	c4.4-0.4,9.7,5.6,13.9,11.4c6.3,8.6,9.6,16.1,12.1,21.3c2.9,6.1,7.4,15,13.9,25.6c-0.1,9.2-0.1,18.5-0.2,27.7
	c-0.3,1.9-1,3.2-1.5,3.9c-2.1,3.1-6.8,5.6-10.4,4.9c-0.6-0.1-1.9-0.4-3.1,0.3c-0.7,0.4-1.1,1.1-1.3,1.6c-0.4,1-0.1,2.2,0.7,3
	c0.6,0.5,1.5,0.9,3.1,0.6c0,0,15.6-2.5,23.8-1.5c0,0,8.7,0.2,19.3,1.6c0.3,0.1,1.2,0.3,2-0.1c1.6-0.8,1.9-3.3,1-4.6
	c-0.5-0.7-1.3-0.9-2.1-1.1c-3.5-0.8-5.8-0.7-7-0.9c-1.8-0.3-4.3-1.4-6.9-5.6l-0.8-30.8l28.5-48.2c0,0,8-9.7,11.8-9.2
	c0,0,5.9,1.2,3.2-5.1c0,0,0.9-1.6-12.5,0.6C207.5,110.8,204.1,111.9,197.5,110.2z"/>
</svg>
