<?xml version="1.0" encoding="utf-8"?>
<!-- Generator: Adobe Illustrator 22.0.1, SVG Export Plug-In . SVG Version: 6.00 Build 0)  -->
<svg version="1.1" id="Layer_1" xmlns="http://www.w3.org/2000/svg" xmlns:xlink="http://www.w3.org/1999/xlink" x="0px" y="0px"
	 viewBox="0 0 512 512" style="enable-background:new 0 0 512 512;" xml:space="preserve">
<style type="text/css">
	.st0{fill:#FFFFFF;}
</style>
<path class="st0" d="M510.8,392.7c-5.2,12.2-27.2,21.1-67.4,27.3c-2.1,2.8-3.8,14.7-6.5,24c-1.6,5.6-5.6,8.9-12.1,8.9l-0.3,0
	c-9.4,0-19.2-4.3-38.9-4.3c-26.5,0-35.7,6-56.3,20.6c-21.8,15.4-42.8,28.8-74,27.4c-31.6,2.3-58-16.9-72.9-27.4
	c-20.7-14.6-29.8-20.6-56.2-20.6c-18.9,0-30.7,4.7-38.9,4.7c-8.1,0-11.2-4.9-12.4-9c-2.7-9.2-4.4-21.3-6.5-24.1
	C47.8,416.8,1.2,408.7,0,387.9c-0.3-5.4,3.5-10.2,8.9-11.1c69.6-11.5,100.9-82.9,102.2-85.9c0.1-0.2,0.2-0.3,0.2-0.5
	c3.7-7.5,4.5-13.8,2.5-18.8c-5.1-11.9-26.9-16.2-36.1-19.8c-23.7-9.4-27-20.1-25.6-27.5c2.4-12.8,21.7-20.7,33-15.5
	c8.9,4.2,16.8,6.3,23.5,6.3c5,0,8.2-1.2,10-2.2c-2-35.9-7.1-87.3,5.7-116c33.8-75.7,105.4-81.6,126.5-81.6c0.9,0,9.1-0.1,10.1-0.1
	c52.1,0,102.3,26.8,126.7,81.6c12.8,28.7,7.7,79.8,5.7,116c1.6,0.9,4.4,1.9,8.6,2.1c6.4-0.3,13.8-2.4,22.1-6.3
	c6.1-2.8,14.4-2.5,20.5,0.1l0,0c9.5,3.4,15.4,10.2,15.6,17.9c0.2,9.7-8.5,18.2-25.9,25c-2.1,0.8-4.7,1.7-7.4,2.5
	c-9.8,3.1-24.6,7.8-28.6,17.3c-2.1,4.9-1.3,11.2,2.5,18.7c0.1,0.2,0.2,0.3,0.2,0.5c1.3,3,32.6,74.5,102.2,85.9
	C509.5,377.9,514.3,384.7,510.8,392.7L510.8,392.7z"/>
</svg>
