<?xml version="1.0" encoding="utf-8"?>
<!-- Generator: Adobe Illustrator 22.0.1, SVG Export Plug-In . SVG Version: 6.00 Build 0)  -->
<svg version="1.1" id="Layer_1" xmlns="http://www.w3.org/2000/svg" xmlns:xlink="http://www.w3.org/1999/xlink" x="0px" y="0px"
	 viewBox="0 0 792 612" style="enable-background:new 0 0 792 612;" xml:space="preserve">
<style type="text/css">
	.st0{fill:#F6D51F;}
</style>
<g id="Layer_1_1_">
</g>
<g id="Layer_2_1_">
</g>
<g id="Layer_3">
	<g>
		<path class="st0" d="M537.4,52.5v164.1h-3c-9.9,0-18,8.1-18,18v324.9H409.1v-46.8c0-9.9-8.1-18-18-18H254.6v-60.5h1.3
			c7.9,0,15-5.2,17.2-12.8l19.3-64.4c0.5-1.7,0.8-3.4,0.8-5.2V133.9L313,133c7.4-0.3,13.9-5.2,16.3-12.2l23.2-68.3H537.4
			 M555.4,34.5H339.6L312.3,115l-37,1.6v235.1L256,416.1h-19.3v96.5h154.5v64.8h143.3V234.6h21L555.4,34.5L555.4,34.5z"/>
	</g>
</g>
<g id="Layer_4">
</g>
</svg>
