<?xml version="1.0" encoding="utf-8"?>
<!-- Generator: Adobe Illustrator 22.0.1, SVG Export Plug-In . SVG Version: 6.00 Build 0)  -->
<svg version="1.1" id="Layer_1" xmlns="http://www.w3.org/2000/svg" xmlns:xlink="http://www.w3.org/1999/xlink" x="0px" y="0px"
	 viewBox="0 0 792 612" style="enable-background:new 0 0 792 612;" xml:space="preserve">
<style type="text/css">
	.st0{fill:#F6D51F;}
</style>
<g id="Layer_1_1_">
	<g>
		<path class="st0" d="M450.8,56.3l23.1,56.5c0.3,0.8,0.7,1.6,1.2,2.3l19.1,32.4v21c0,9.6,7.6,17.5,17.2,18l32.1,1.5l2.5,21.5
			c1,8.5,7.9,15.1,16.4,15.8l8.2,0.7l-1,14.7c-0.3,5,1.4,9.9,4.8,13.5c3.4,3.6,8.2,5.7,13.1,5.7h4.3l-0.7,8.6
			c-0.4,4.8,1.2,9.5,4.3,13.1s7.5,5.9,12.3,6.2l10.3,0.8l-1,16.3c-0.3,5,1.4,9.8,4.8,13.5s8.2,5.7,13.1,5.7h0.7l-1.5,42.2
			c-0.2,5.1,1.8,10.1,5.6,13.7c3.4,3.2,7.8,5,12.4,5c0.5,0,1,0,1.5-0.1l10.7-0.9c0,0.1,0,0.1,0,0.2v22.4l-7.3,0.7
			c-9.3,0.8-16.4,8.6-16.4,17.9v32.9l-11.4,0.9c-9.4,0.7-16.6,8.5-16.6,17.9v31.6H594c-9.9,0-18,8.1-18,18v8.8
			c-1.8-0.6-3.7-0.9-5.7-0.9h-262L312,518c1.2-5.3-0.1-10.9-3.5-15.2c-3.4-4.3-8.6-6.8-14.1-6.8h-12.5l-14.1-186.3l3.1-107.2
			c0.1-4.9-1.7-9.6-5.1-13.1s-8-5.5-12.9-5.5h-10.5L240,124c-0.1-1.8-0.4-3.6-1-5.3l-17.5-49.6V56.3H450.8 M462.9,38.3H203.4v34
			l18.5,52.5L225,202h27.8l-3.1,108.1L265.2,514h29.2l-8.6,38.2h284.5v21.6H594v-47.4h36.6v-49.6l28-2.2V425l23.7-2.2V384h21.6
			v-21.6l-51.7,4.3l2.2-60.8H635l2.2-34l-28-2.2l2.2-28h-23.7l2.2-32.3l-25.9-2.2l-4.3-36.6l-47.4-2.2v-25.9L490.5,106L462.9,38.3
			L462.9,38.3z"/>
	</g>
</g>
<g id="Layer_2_1_">
</g>
<g id="Layer_3">
</g>
<g id="Layer_4">
</g>
</svg>
