<?xml version="1.0" encoding="utf-8"?>
<!-- Generator: Adobe Illustrator 22.0.1, SVG Export Plug-In . SVG Version: 6.00 Build 0)  -->
<svg version="1.1" id="Layer_1" xmlns="http://www.w3.org/2000/svg" xmlns:xlink="http://www.w3.org/1999/xlink" x="0px" y="0px"
	 viewBox="0 0 792 612" style="enable-background:new 0 0 792 612;" xml:space="preserve">
<style type="text/css">
	.st0{fill:#F6D51F;}
</style>
<g id="Layer_1_1_">
</g>
<g id="Layer_2_1_">
	<g>
		<g>
			<path class="st0" d="M560.1,217.4l34.7,20.5l14.6,12.2l1.3,40.1l-31.5,20.1c-4.8,3.1-7.9,8.3-8.3,14l-3.7,54.8
				c-0.7,9.8,6.7,18.4,16.6,19.1l23.8,1.8c0.5,0,0.9,0.1,1.4,0.1c9.3,0,17.1-7.1,17.9-16.5l0.5-5.4h24.2l14.3,17.6v60.3l-49.3,90.7
				h-225l25.3-18.7c4.4-3.3,7.1-8.4,7.3-13.8l3.7-102.3c0.2-4.9-1.6-9.6-5-13.1c-3.3-3.4-7.7-5.4-12.4-5.5v-71l48.3-64.2l50.6,3.1
				c0.4,0,0.7,0,1.1,0c4.6,0,9-1.7,12.3-4.9c3.6-3.4,5.7-8.1,5.7-13.1v-25.8h31.6 M565,199.4h-54.8v43.8l-60.3-3.7l-57.7,76.7v95
				h17.5L406,513.7l-42,31.1v20.1h263.1l56.6-104.1v-71.3L660,360.2h-49.3l-1.8,21.9l-23.8-1.8l3.7-54.8l40.2-25.6l-1.8-58.5
				l-21.9-18.3L565,199.4L565,199.4z"/>
		</g>
		<g>
			<path class="st0" d="M245.7,81c0.2,2,0.8,4,1.8,5.8c2.9,5.9,8.8,9.7,15.4,10l34,1.4l13.9,34.8c2.7,6.8,9.4,11.3,16.7,11.3h64.7
				c9.9,0,18-8.1,18-18v-9.7l78.3-1.3c0,9.6,7.6,17.5,17.2,18l24.8,1.1v8.3c0,4.9,2,9.6,5.6,13c3.4,3.2,7.8,5,12.4,5
				c0.3,0,0.6,0,0.9,0l31.8-1.6l8,4h-86.6v-10.3c0-9.9-8.1-18-18-18h-63c-6.2,0-11.9,3.2-15.2,8.4l-15.6,24.7l-8.5,13.5h-34.7
				c-9.9,0-18,8.1-18,18v13.9l-16.7,32.1h-6v-29.5c0-9.9-8.1-18-18-18l0,0l1.8-18.7c0.5-5.5-1.5-10.9-5.5-14.7
				c-3.4-3.2-7.8-5-12.5-5c-0.8,0-1.7,0.1-2.5,0.2l-45.5,6.3c-1.2-8.8-8.7-15.6-17.8-15.6h-51.4v-7.6c0-9.9-8.1-18-18-18h-11.2
				v-12.4l18.4-11.9h53.2c2.5,0,5-0.5,7.3-1.5L245.7,81 M288.9,42.3L288.9,42.3L288.9,42.3z M288.9,42.3l-91.1,40.2h-58.5
				l-31.1,20.1v40.2h29.2v25.6h69.4v18.3l65.8-9.1l-3.7,38.4h19.8v47.5h35l23.8-45.7v-18.3h44.6l13.8-21.9l15.6-24.7h63v28.3h124.2
				v-28.3L585.1,141l-36.5,1.8v-25.6l-42-1.8V97.1l-114.3,1.8v27.4h-64.7l-18.3-45.7l-45.7-1.8L288.9,42.3L288.9,42.3z"/>
		</g>
	</g>
</g>
<g id="Layer_3">
</g>
<g id="Layer_4">
</g>
</svg>
